<mxfile host="Electron" modified="2025-05-12T03:24:48.414Z" agent="Mozilla/5.0 (Windows NT 10.0; Win64; x64) AppleWebKit/537.36 (KHTML, like Gecko) draw.io/23.1.5 Chrome/120.0.6099.109 Electron/28.1.0 Safari/537.36" etag="OUFf3o2IVEq1tB4orP10" version="23.1.5" type="device">
  <diagram name="Страница — 1" id="bzmo2tlNkWvASclN0ems">
    <mxGraphModel dx="3550" dy="2055" grid="1" gridSize="10" guides="1" tooltips="1" connect="1" arrows="1" fold="1" page="1" pageScale="1" pageWidth="827" pageHeight="1169" math="0" shadow="0">
      <root>
        <mxCell id="0" />
        <mxCell id="1" parent="0" />
        <mxCell id="hfiU2eHEGM3FgHxI7Riw-3" style="edgeStyle=orthogonalEdgeStyle;rounded=0;orthogonalLoop=1;jettySize=auto;html=1;endArrow=none;endFill=0;entryX=0.5;entryY=0;entryDx=0;entryDy=0;fontFamily=Times New Roman;fontSize=9;" edge="1" parent="1" source="hfiU2eHEGM3FgHxI7Riw-1" target="hfiU2eHEGM3FgHxI7Riw-4">
          <mxGeometry relative="1" as="geometry">
            <mxPoint x="414" y="130" as="targetPoint" />
          </mxGeometry>
        </mxCell>
        <mxCell id="hfiU2eHEGM3FgHxI7Riw-1" value="Начало" style="strokeWidth=1;html=1;shape=mxgraph.flowchart.terminator;whiteSpace=wrap;fontFamily=Times New Roman;fontSize=9;" vertex="1" parent="1">
          <mxGeometry x="369" y="50" width="90" height="50" as="geometry" />
        </mxCell>
        <mxCell id="hfiU2eHEGM3FgHxI7Riw-7" style="edgeStyle=orthogonalEdgeStyle;rounded=0;orthogonalLoop=1;jettySize=auto;html=1;entryX=0.5;entryY=0;entryDx=0;entryDy=0;endArrow=none;endFill=0;fontFamily=Times New Roman;fontSize=9;" edge="1" parent="1" source="hfiU2eHEGM3FgHxI7Riw-4" target="hfiU2eHEGM3FgHxI7Riw-6">
          <mxGeometry relative="1" as="geometry" />
        </mxCell>
        <mxCell id="hfiU2eHEGM3FgHxI7Riw-4" value="&lt;div style=&quot;font-size: 9px;&quot;&gt;time=480; mean=2; N=50; num_workers=2&lt;/div&gt;" style="rounded=0;whiteSpace=wrap;html=1;align=center;fontFamily=Times New Roman;fontSize=9;" vertex="1" parent="1">
          <mxGeometry x="342" y="120" width="144" height="50" as="geometry" />
        </mxCell>
        <mxCell id="hfiU2eHEGM3FgHxI7Riw-8" style="edgeStyle=orthogonalEdgeStyle;rounded=0;orthogonalLoop=1;jettySize=auto;html=1;strokeColor=default;align=center;verticalAlign=middle;fontFamily=Times New Roman;fontSize=9;fontColor=default;labelBackgroundColor=default;endArrow=none;endFill=0;" edge="1" parent="1" source="hfiU2eHEGM3FgHxI7Riw-6">
          <mxGeometry relative="1" as="geometry">
            <mxPoint x="414" y="280" as="targetPoint" />
          </mxGeometry>
        </mxCell>
        <mxCell id="hfiU2eHEGM3FgHxI7Riw-6" value="&lt;div style=&quot;font-size: 9px;&quot;&gt;quantile=2.7;&amp;nbsp;epsilon=0.1&lt;/div&gt;" style="rounded=0;whiteSpace=wrap;html=1;align=center;fontFamily=Times New Roman;fontSize=9;" vertex="1" parent="1">
          <mxGeometry x="342" y="190" width="144" height="50" as="geometry" />
        </mxCell>
        <mxCell id="hfiU2eHEGM3FgHxI7Riw-10" value="" style="endArrow=classic;html=1;rounded=0;strokeColor=default;align=center;verticalAlign=middle;fontFamily=Times New Roman;fontSize=9;fontColor=default;labelBackgroundColor=default;edgeStyle=orthogonalEdgeStyle;endFill=1;" edge="1" parent="1">
          <mxGeometry width="50" height="50" relative="1" as="geometry">
            <mxPoint x="274" y="260.05999999999995" as="sourcePoint" />
            <mxPoint x="414" y="260.05999999999995" as="targetPoint" />
            <Array as="points">
              <mxPoint x="324" y="260.05999999999995" />
              <mxPoint x="324" y="260.05999999999995" />
            </Array>
          </mxGeometry>
        </mxCell>
        <mxCell id="hfiU2eHEGM3FgHxI7Riw-16" style="edgeStyle=orthogonalEdgeStyle;rounded=0;orthogonalLoop=1;jettySize=auto;html=1;entryX=0.5;entryY=0;entryDx=0;entryDy=0;strokeColor=default;align=center;verticalAlign=middle;fontFamily=Times New Roman;fontSize=9;fontColor=default;labelBackgroundColor=default;endArrow=none;endFill=0;" edge="1" parent="1" source="hfiU2eHEGM3FgHxI7Riw-12" target="hfiU2eHEGM3FgHxI7Riw-15">
          <mxGeometry relative="1" as="geometry" />
        </mxCell>
        <mxCell id="hfiU2eHEGM3FgHxI7Riw-12" value="&lt;div style=&quot;font-size: 9px;&quot;&gt;middle_wait[N]&lt;/div&gt;" style="rounded=0;whiteSpace=wrap;html=1;align=center;fontFamily=Times New Roman;fontSize=9;" vertex="1" parent="1">
          <mxGeometry x="342" y="270" width="144" height="50" as="geometry" />
        </mxCell>
        <mxCell id="hfiU2eHEGM3FgHxI7Riw-19" style="edgeStyle=orthogonalEdgeStyle;rounded=0;orthogonalLoop=1;jettySize=auto;html=1;strokeColor=default;align=center;verticalAlign=middle;fontFamily=Times New Roman;fontSize=9;fontColor=default;labelBackgroundColor=default;endArrow=none;endFill=0;entryX=0.5;entryY=0;entryDx=0;entryDy=0;" edge="1" parent="1" source="hfiU2eHEGM3FgHxI7Riw-15" target="hfiU2eHEGM3FgHxI7Riw-21">
          <mxGeometry relative="1" as="geometry">
            <mxPoint x="414" y="410" as="targetPoint" />
          </mxGeometry>
        </mxCell>
        <mxCell id="hfiU2eHEGM3FgHxI7Riw-15" value="p=0; p&amp;lt;N; p+=1" style="shape=hexagon;perimeter=hexagonPerimeter2;whiteSpace=wrap;html=1;fixedSize=1;fontFamily=Times New Roman;fontSize=9;fontColor=default;labelBackgroundColor=default;" vertex="1" parent="1">
          <mxGeometry x="354" y="340" width="120" height="50" as="geometry" />
        </mxCell>
        <mxCell id="hfiU2eHEGM3FgHxI7Riw-23" style="edgeStyle=orthogonalEdgeStyle;rounded=0;orthogonalLoop=1;jettySize=auto;html=1;entryX=0.5;entryY=0;entryDx=0;entryDy=0;strokeColor=default;align=center;verticalAlign=middle;fontFamily=Times New Roman;fontSize=9;fontColor=default;labelBackgroundColor=default;endArrow=none;endFill=0;" edge="1" parent="1" source="hfiU2eHEGM3FgHxI7Riw-21" target="hfiU2eHEGM3FgHxI7Riw-22">
          <mxGeometry relative="1" as="geometry" />
        </mxCell>
        <mxCell id="hfiU2eHEGM3FgHxI7Riw-21" value="tao=случ.показ.числ(mean)&amp;nbsp;" style="shape=process;whiteSpace=wrap;html=1;backgroundOutline=1;fontFamily=Times New Roman;fontSize=9;fontColor=default;labelBackgroundColor=default;" vertex="1" parent="1">
          <mxGeometry x="324" y="410" width="180" height="30" as="geometry" />
        </mxCell>
        <mxCell id="hfiU2eHEGM3FgHxI7Riw-22" value="time_counter=tao&lt;br style=&quot;font-size: 9px;&quot;&gt;arrayTao[]" style="rounded=0;whiteSpace=wrap;html=1;fontFamily=Times New Roman;fontSize=9;fontColor=default;labelBackgroundColor=default;" vertex="1" parent="1">
          <mxGeometry x="354" y="450" width="120" height="30" as="geometry" />
        </mxCell>
        <mxCell id="hfiU2eHEGM3FgHxI7Riw-30" style="edgeStyle=orthogonalEdgeStyle;rounded=0;orthogonalLoop=1;jettySize=auto;html=1;entryX=0.5;entryY=0;entryDx=0;entryDy=0;strokeColor=default;align=center;verticalAlign=middle;fontFamily=Times New Roman;fontSize=9;fontColor=default;labelBackgroundColor=default;endArrow=none;endFill=0;" edge="1" parent="1" source="hfiU2eHEGM3FgHxI7Riw-24" target="hfiU2eHEGM3FgHxI7Riw-29">
          <mxGeometry relative="1" as="geometry">
            <Array as="points">
              <mxPoint x="414" y="565" />
              <mxPoint x="290" y="565" />
            </Array>
          </mxGeometry>
        </mxCell>
        <mxCell id="hfiU2eHEGM3FgHxI7Riw-50" style="edgeStyle=orthogonalEdgeStyle;rounded=0;orthogonalLoop=1;jettySize=auto;html=1;entryX=0.5;entryY=0;entryDx=0;entryDy=0;strokeColor=default;align=center;verticalAlign=middle;fontFamily=Times New Roman;fontSize=9;fontColor=default;labelBackgroundColor=default;endArrow=none;endFill=0;" edge="1" parent="1" source="hfiU2eHEGM3FgHxI7Riw-24" target="hfiU2eHEGM3FgHxI7Riw-49">
          <mxGeometry relative="1" as="geometry">
            <Array as="points">
              <mxPoint x="560" y="525" />
            </Array>
          </mxGeometry>
        </mxCell>
        <mxCell id="hfiU2eHEGM3FgHxI7Riw-24" value="time &amp;gt; time_counter" style="rhombus;whiteSpace=wrap;html=1;fontFamily=Times New Roman;fontSize=9;fontColor=default;labelBackgroundColor=default;" vertex="1" parent="1">
          <mxGeometry x="326" y="500" width="176" height="50" as="geometry" />
        </mxCell>
        <mxCell id="hfiU2eHEGM3FgHxI7Riw-25" style="edgeStyle=orthogonalEdgeStyle;rounded=0;orthogonalLoop=1;jettySize=auto;html=1;strokeColor=default;align=center;verticalAlign=middle;fontFamily=Times New Roman;fontSize=9;fontColor=default;labelBackgroundColor=default;endArrow=none;endFill=0;entryX=0.5;entryY=0;entryDx=0;entryDy=0;" edge="1" parent="1" source="hfiU2eHEGM3FgHxI7Riw-22" target="hfiU2eHEGM3FgHxI7Riw-24">
          <mxGeometry relative="1" as="geometry">
            <mxPoint x="460" y="500" as="targetPoint" />
          </mxGeometry>
        </mxCell>
        <mxCell id="hfiU2eHEGM3FgHxI7Riw-31" style="edgeStyle=orthogonalEdgeStyle;rounded=0;orthogonalLoop=1;jettySize=auto;html=1;strokeColor=default;align=center;verticalAlign=middle;fontFamily=Times New Roman;fontSize=9;fontColor=default;labelBackgroundColor=default;endArrow=none;endFill=0;" edge="1" parent="1" source="hfiU2eHEGM3FgHxI7Riw-29">
          <mxGeometry relative="1" as="geometry">
            <mxPoint x="290" y="640" as="targetPoint" />
          </mxGeometry>
        </mxCell>
        <mxCell id="hfiU2eHEGM3FgHxI7Riw-29" value="arrayTao.Add(tao)" style="shape=process;whiteSpace=wrap;html=1;backgroundOutline=1;fontFamily=Times New Roman;fontSize=9;fontColor=default;labelBackgroundColor=default;" vertex="1" parent="1">
          <mxGeometry x="200" y="585" width="180" height="30" as="geometry" />
        </mxCell>
        <mxCell id="hfiU2eHEGM3FgHxI7Riw-38" style="edgeStyle=orthogonalEdgeStyle;rounded=0;orthogonalLoop=1;jettySize=auto;html=1;entryX=0.5;entryY=0;entryDx=0;entryDy=0;strokeColor=default;align=center;verticalAlign=middle;fontFamily=Times New Roman;fontSize=9;fontColor=default;labelBackgroundColor=default;endArrow=none;endFill=0;" edge="1" parent="1" source="hfiU2eHEGM3FgHxI7Riw-32" target="hfiU2eHEGM3FgHxI7Riw-34">
          <mxGeometry relative="1" as="geometry" />
        </mxCell>
        <mxCell id="hfiU2eHEGM3FgHxI7Riw-32" value="customer.enter=time_counter" style="shape=process;whiteSpace=wrap;html=1;backgroundOutline=1;fontFamily=Times New Roman;fontSize=9;fontColor=default;labelBackgroundColor=default;" vertex="1" parent="1">
          <mxGeometry x="200" y="622" width="180" height="30" as="geometry" />
        </mxCell>
        <mxCell id="hfiU2eHEGM3FgHxI7Riw-40" style="edgeStyle=orthogonalEdgeStyle;rounded=0;orthogonalLoop=1;jettySize=auto;html=1;entryX=0.5;entryY=0;entryDx=0;entryDy=0;strokeColor=default;align=center;verticalAlign=middle;fontFamily=Times New Roman;fontSize=9;fontColor=default;labelBackgroundColor=default;endArrow=none;endFill=0;" edge="1" parent="1" source="hfiU2eHEGM3FgHxI7Riw-34" target="hfiU2eHEGM3FgHxI7Riw-39">
          <mxGeometry relative="1" as="geometry" />
        </mxCell>
        <mxCell id="hfiU2eHEGM3FgHxI7Riw-34" value="customers.Add(customer)" style="shape=process;whiteSpace=wrap;html=1;backgroundOutline=1;fontFamily=Times New Roman;fontSize=9;fontColor=default;labelBackgroundColor=default;" vertex="1" parent="1">
          <mxGeometry x="200" y="660" width="180" height="30" as="geometry" />
        </mxCell>
        <mxCell id="hfiU2eHEGM3FgHxI7Riw-42" style="edgeStyle=orthogonalEdgeStyle;rounded=0;orthogonalLoop=1;jettySize=auto;html=1;entryX=0.5;entryY=0;entryDx=0;entryDy=0;strokeColor=default;align=center;verticalAlign=middle;fontFamily=Times New Roman;fontSize=9;fontColor=default;labelBackgroundColor=default;endArrow=none;endFill=0;" edge="1" parent="1" source="hfiU2eHEGM3FgHxI7Riw-39" target="hfiU2eHEGM3FgHxI7Riw-41">
          <mxGeometry relative="1" as="geometry" />
        </mxCell>
        <mxCell id="hfiU2eHEGM3FgHxI7Riw-39" value="tao=случ.показ.числ(mean)&amp;nbsp;" style="shape=process;whiteSpace=wrap;html=1;backgroundOutline=1;fontFamily=Times New Roman;fontSize=9;fontColor=default;labelBackgroundColor=default;" vertex="1" parent="1">
          <mxGeometry x="200" y="700" width="180" height="30" as="geometry" />
        </mxCell>
        <mxCell id="hfiU2eHEGM3FgHxI7Riw-41" value="time_counter += tao" style="rounded=0;whiteSpace=wrap;html=1;fontFamily=Times New Roman;fontSize=9;fontColor=default;labelBackgroundColor=default;" vertex="1" parent="1">
          <mxGeometry x="230" y="740" width="120" height="30" as="geometry" />
        </mxCell>
        <mxCell id="hfiU2eHEGM3FgHxI7Riw-43" style="edgeStyle=orthogonalEdgeStyle;rounded=0;orthogonalLoop=1;jettySize=auto;html=1;strokeColor=default;align=center;verticalAlign=middle;fontFamily=Times New Roman;fontSize=9;fontColor=default;labelBackgroundColor=default;endArrow=classic;endFill=1;" edge="1" parent="1" source="hfiU2eHEGM3FgHxI7Riw-41">
          <mxGeometry relative="1" as="geometry">
            <mxPoint x="414" y="490" as="targetPoint" />
            <Array as="points">
              <mxPoint x="290" y="780" />
              <mxPoint x="150" y="780" />
              <mxPoint x="150" y="490" />
              <mxPoint x="410" y="490" />
            </Array>
          </mxGeometry>
        </mxCell>
        <mxCell id="hfiU2eHEGM3FgHxI7Riw-45" value="0" style="text;html=1;align=center;verticalAlign=middle;resizable=0;points=[];autosize=1;strokeColor=none;fillColor=none;fontFamily=Times New Roman;fontSize=9;fontColor=default;labelBackgroundColor=default;" vertex="1" parent="1">
          <mxGeometry x="504" y="495" width="30" height="20" as="geometry" />
        </mxCell>
        <mxCell id="hfiU2eHEGM3FgHxI7Riw-48" value="1" style="text;html=1;align=center;verticalAlign=middle;resizable=0;points=[];autosize=1;strokeColor=none;fillColor=none;fontFamily=Times New Roman;fontSize=9;fontColor=default;labelBackgroundColor=default;" vertex="1" parent="1">
          <mxGeometry x="365" y="543" width="30" height="20" as="geometry" />
        </mxCell>
        <mxCell id="hfiU2eHEGM3FgHxI7Riw-54" style="edgeStyle=orthogonalEdgeStyle;rounded=0;orthogonalLoop=1;jettySize=auto;html=1;strokeColor=default;align=center;verticalAlign=middle;fontFamily=Times New Roman;fontSize=9;fontColor=default;labelBackgroundColor=default;endArrow=none;endFill=0;entryX=0.5;entryY=0;entryDx=0;entryDy=0;" edge="1" parent="1" source="hfiU2eHEGM3FgHxI7Riw-49" target="hfiU2eHEGM3FgHxI7Riw-51">
          <mxGeometry relative="1" as="geometry">
            <mxPoint x="565" y="610" as="targetPoint" />
          </mxGeometry>
        </mxCell>
        <mxCell id="hfiU2eHEGM3FgHxI7Riw-49" value="a = arrayTao.Sum() / customers.Count" style="rounded=0;whiteSpace=wrap;html=1;fontFamily=Times New Roman;fontSize=9;fontColor=default;labelBackgroundColor=default;" vertex="1" parent="1">
          <mxGeometry x="500" y="560" width="130" height="30" as="geometry" />
        </mxCell>
        <mxCell id="hfiU2eHEGM3FgHxI7Riw-55" style="edgeStyle=orthogonalEdgeStyle;rounded=0;orthogonalLoop=1;jettySize=auto;html=1;entryX=0.5;entryY=0;entryDx=0;entryDy=0;strokeColor=default;align=center;verticalAlign=middle;fontFamily=Times New Roman;fontSize=9;fontColor=default;labelBackgroundColor=default;endArrow=none;endFill=0;" edge="1" parent="1" source="hfiU2eHEGM3FgHxI7Riw-51" target="hfiU2eHEGM3FgHxI7Riw-53">
          <mxGeometry relative="1" as="geometry" />
        </mxCell>
        <mxCell id="hfiU2eHEGM3FgHxI7Riw-51" value="deltaT = a / 10" style="rounded=0;whiteSpace=wrap;html=1;fontFamily=Times New Roman;fontSize=9;fontColor=default;labelBackgroundColor=default;" vertex="1" parent="1">
          <mxGeometry x="505" y="601" width="120" height="30" as="geometry" />
        </mxCell>
        <mxCell id="hfiU2eHEGM3FgHxI7Riw-60" style="edgeStyle=orthogonalEdgeStyle;rounded=0;orthogonalLoop=1;jettySize=auto;html=1;entryX=0.5;entryY=1;entryDx=0;entryDy=0;strokeColor=default;align=center;verticalAlign=middle;fontFamily=Times New Roman;fontSize=9;fontColor=default;labelBackgroundColor=default;endArrow=none;endFill=0;" edge="1" parent="1" source="hfiU2eHEGM3FgHxI7Riw-52" target="hfiU2eHEGM3FgHxI7Riw-53">
          <mxGeometry relative="1" as="geometry" />
        </mxCell>
        <mxCell id="hfiU2eHEGM3FgHxI7Riw-63" style="edgeStyle=orthogonalEdgeStyle;rounded=0;orthogonalLoop=1;jettySize=auto;html=1;entryX=0.5;entryY=0;entryDx=0;entryDy=0;strokeColor=default;align=center;verticalAlign=middle;fontFamily=Times New Roman;fontSize=9;fontColor=default;labelBackgroundColor=default;endArrow=none;endFill=0;" edge="1" parent="1" source="hfiU2eHEGM3FgHxI7Riw-52" target="hfiU2eHEGM3FgHxI7Riw-61">
          <mxGeometry relative="1" as="geometry" />
        </mxCell>
        <mxCell id="hfiU2eHEGM3FgHxI7Riw-52" value="u = 0" style="rounded=0;whiteSpace=wrap;html=1;fontFamily=Times New Roman;fontSize=9;fontColor=default;labelBackgroundColor=default;" vertex="1" parent="1">
          <mxGeometry x="505" y="690" width="120" height="30" as="geometry" />
        </mxCell>
        <mxCell id="hfiU2eHEGM3FgHxI7Riw-53" value="time_counter = 0" style="rounded=0;whiteSpace=wrap;html=1;fontFamily=Times New Roman;fontSize=9;fontColor=default;labelBackgroundColor=default;" vertex="1" parent="1">
          <mxGeometry x="505" y="644" width="120" height="30" as="geometry" />
        </mxCell>
        <mxCell id="hfiU2eHEGM3FgHxI7Riw-191" style="edgeStyle=orthogonalEdgeStyle;rounded=0;orthogonalLoop=1;jettySize=auto;html=1;entryX=0.5;entryY=0;entryDx=0;entryDy=0;strokeColor=default;align=center;verticalAlign=middle;fontFamily=Times New Roman;fontSize=9;fontColor=default;labelBackgroundColor=default;endArrow=none;endFill=0;" edge="1" parent="1" source="hfiU2eHEGM3FgHxI7Riw-61" target="hfiU2eHEGM3FgHxI7Riw-108">
          <mxGeometry relative="1" as="geometry" />
        </mxCell>
        <mxCell id="hfiU2eHEGM3FgHxI7Riw-61" value="time &amp;gt; time_counter" style="rhombus;whiteSpace=wrap;html=1;fontFamily=Times New Roman;fontSize=9;fontColor=default;labelBackgroundColor=default;" vertex="1" parent="1">
          <mxGeometry x="493.5" y="740" width="143" height="50" as="geometry" />
        </mxCell>
        <mxCell id="hfiU2eHEGM3FgHxI7Riw-107" style="edgeStyle=orthogonalEdgeStyle;rounded=0;orthogonalLoop=1;jettySize=auto;html=1;endArrow=none;endFill=0;fontFamily=Times New Roman;entryX=0.5;entryY=0;entryDx=0;entryDy=0;fontSize=9;" edge="1" parent="1" source="hfiU2eHEGM3FgHxI7Riw-108" target="hfiU2eHEGM3FgHxI7Riw-113">
          <mxGeometry relative="1" as="geometry">
            <mxPoint x="565" y="970" as="targetPoint" />
          </mxGeometry>
        </mxCell>
        <mxCell id="hfiU2eHEGM3FgHxI7Riw-193" style="edgeStyle=orthogonalEdgeStyle;rounded=0;orthogonalLoop=1;jettySize=auto;html=1;exitX=1;exitY=0.5;exitDx=0;exitDy=0;strokeColor=default;align=center;verticalAlign=middle;fontFamily=Helvetica;fontSize=11;fontColor=default;labelBackgroundColor=default;endArrow=none;endFill=0;entryX=0.5;entryY=0;entryDx=0;entryDy=0;" edge="1" parent="1" source="hfiU2eHEGM3FgHxI7Riw-108" target="hfiU2eHEGM3FgHxI7Riw-195">
          <mxGeometry relative="1" as="geometry">
            <mxPoint x="981" y="960" as="targetPoint" />
          </mxGeometry>
        </mxCell>
        <mxCell id="hfiU2eHEGM3FgHxI7Riw-108" value="t &amp;lt; 480" style="rhombus;whiteSpace=wrap;html=1;fontFamily=Times New Roman;fontSize=9;" vertex="1" parent="1">
          <mxGeometry x="460" y="840" width="210" height="80" as="geometry" />
        </mxCell>
        <mxCell id="hfiU2eHEGM3FgHxI7Riw-109" value="Нет, время моделирования &lt;br style=&quot;font-size: 9px;&quot;&gt;закончилось" style="text;html=1;align=left;verticalAlign=middle;resizable=0;points=[];autosize=1;strokeColor=none;fillColor=none;fontFamily=Times New Roman;fontSize=9;" vertex="1" parent="1">
          <mxGeometry x="710" y="840" width="130" height="40" as="geometry" />
        </mxCell>
        <mxCell id="hfiU2eHEGM3FgHxI7Riw-110" value="Да, моделирование продолжается" style="text;html=1;align=center;verticalAlign=middle;resizable=0;points=[];autosize=1;strokeColor=none;fillColor=none;fontFamily=Times New Roman;fontSize=9;" vertex="1" parent="1">
          <mxGeometry x="361" y="905" width="150" height="20" as="geometry" />
        </mxCell>
        <mxCell id="hfiU2eHEGM3FgHxI7Riw-111" style="edgeStyle=orthogonalEdgeStyle;rounded=0;orthogonalLoop=1;jettySize=auto;html=1;fontFamily=Times New Roman;endArrow=none;endFill=0;entryX=0.5;entryY=0;entryDx=0;entryDy=0;fontSize=9;" edge="1" parent="1" source="hfiU2eHEGM3FgHxI7Riw-113" target="hfiU2eHEGM3FgHxI7Riw-119">
          <mxGeometry relative="1" as="geometry">
            <mxPoint x="760.9999999999998" y="1080" as="targetPoint" />
            <Array as="points">
              <mxPoint x="763" y="1010" />
            </Array>
          </mxGeometry>
        </mxCell>
        <mxCell id="hfiU2eHEGM3FgHxI7Riw-112" style="edgeStyle=orthogonalEdgeStyle;rounded=0;orthogonalLoop=1;jettySize=auto;html=1;fontFamily=Times New Roman;endArrow=none;endFill=0;entryX=0.5;entryY=0;entryDx=0;entryDy=0;exitX=0;exitY=0.5;exitDx=0;exitDy=0;fontSize=9;" edge="1" parent="1" source="hfiU2eHEGM3FgHxI7Riw-113" target="hfiU2eHEGM3FgHxI7Riw-117">
          <mxGeometry relative="1" as="geometry">
            <mxPoint x="565.0000000000002" y="1100" as="targetPoint" />
          </mxGeometry>
        </mxCell>
        <mxCell id="hfiU2eHEGM3FgHxI7Riw-113" value="T&lt;sub style=&quot;border-color: var(--border-color); font-size: 9px;&quot;&gt;прихода&lt;/sub&gt;&lt;span style=&quot;border-color: var(--border-color); font-size: 9px;&quot;&gt;=0&lt;/span&gt;" style="rhombus;whiteSpace=wrap;html=1;fontFamily=Times New Roman;fontSize=9;" vertex="1" parent="1">
          <mxGeometry x="460.5" y="970" width="209" height="80" as="geometry" />
        </mxCell>
        <mxCell id="hfiU2eHEGM3FgHxI7Riw-114" value="Нет, клиент не прибыл, поток закрыт" style="text;html=1;align=left;verticalAlign=middle;resizable=0;points=[];autosize=1;strokeColor=none;fillColor=none;fontFamily=Times New Roman;fontSize=9;" vertex="1" parent="1">
          <mxGeometry x="673" y="985" width="170" height="20" as="geometry" />
        </mxCell>
        <mxCell id="hfiU2eHEGM3FgHxI7Riw-115" value="Да, клиент прибыл, поток открыт" style="text;html=1;align=center;verticalAlign=middle;resizable=0;points=[];autosize=1;strokeColor=none;fillColor=none;fontFamily=Times New Roman;fontSize=9;" vertex="1" parent="1">
          <mxGeometry x="257" y="995" width="150" height="20" as="geometry" />
        </mxCell>
        <mxCell id="hfiU2eHEGM3FgHxI7Riw-116" style="edgeStyle=orthogonalEdgeStyle;rounded=0;orthogonalLoop=1;jettySize=auto;html=1;entryX=0.5;entryY=0;entryDx=0;entryDy=0;endArrow=none;endFill=0;fontFamily=Times New Roman;fontSize=9;" edge="1" parent="1" source="hfiU2eHEGM3FgHxI7Riw-117" target="hfiU2eHEGM3FgHxI7Riw-121">
          <mxGeometry relative="1" as="geometry" />
        </mxCell>
        <mxCell id="hfiU2eHEGM3FgHxI7Riw-117" value="Х&lt;sub style=&quot;border-color: var(--border-color); font-size: 9px;&quot;&gt;вх&lt;/sub&gt;&lt;span style=&quot;font-size: 9px;&quot;&gt;=1&lt;/span&gt;" style="rounded=0;whiteSpace=wrap;html=1;fontFamily=Times New Roman;fontSize=9;" vertex="1" parent="1">
          <mxGeometry x="371" y="1030" width="120" height="30" as="geometry" />
        </mxCell>
        <mxCell id="hfiU2eHEGM3FgHxI7Riw-118" style="edgeStyle=orthogonalEdgeStyle;rounded=0;orthogonalLoop=1;jettySize=auto;html=1;endArrow=none;endFill=0;fontFamily=Times New Roman;fontSize=9;" edge="1" parent="1" source="hfiU2eHEGM3FgHxI7Riw-119">
          <mxGeometry relative="1" as="geometry">
            <mxPoint x="431" y="1070" as="targetPoint" />
            <Array as="points">
              <mxPoint x="763" y="1070" />
            </Array>
          </mxGeometry>
        </mxCell>
        <mxCell id="hfiU2eHEGM3FgHxI7Riw-119" value="Х&lt;sub style=&quot;border-color: var(--border-color); font-size: 9px;&quot;&gt;вх&lt;/sub&gt;&lt;span style=&quot;font-size: 9px;&quot;&gt;=0&lt;/span&gt;" style="rounded=0;whiteSpace=wrap;html=1;fontFamily=Times New Roman;fontSize=9;" vertex="1" parent="1">
          <mxGeometry x="703" y="1020" width="120" height="30" as="geometry" />
        </mxCell>
        <mxCell id="hfiU2eHEGM3FgHxI7Riw-120" style="edgeStyle=orthogonalEdgeStyle;rounded=0;orthogonalLoop=1;jettySize=auto;html=1;entryX=0.5;entryY=0;entryDx=0;entryDy=0;endArrow=none;endFill=0;fontFamily=Times New Roman;fontSize=9;" edge="1" parent="1" source="hfiU2eHEGM3FgHxI7Riw-121" target="hfiU2eHEGM3FgHxI7Riw-123">
          <mxGeometry relative="1" as="geometry" />
        </mxCell>
        <mxCell id="hfiU2eHEGM3FgHxI7Riw-121" value="&lt;span style=&quot;border-color: var(--border-color); font-size: 9px;&quot;&gt;Z&lt;sub style=&quot;border-color: var(--border-color); background-color: initial; font-size: 9px;&quot;&gt;оч1&lt;/sub&gt;&amp;lt;=&amp;nbsp;&lt;/span&gt;&lt;span style=&quot;border-color: var(--border-color); font-size: 9px;&quot;&gt;Z&lt;sub style=&quot;border-color: var(--border-color); background-color: initial; font-size: 9px;&quot;&gt;оч2&amp;nbsp;&lt;/sub&gt;и&amp;nbsp;&amp;nbsp;&lt;br style=&quot;font-size: 9px;&quot;&gt;&lt;/span&gt;Z&lt;sub style=&quot;border-color: var(--border-color); background-color: initial; font-size: 9px;&quot;&gt;оч1&lt;/sub&gt;&amp;lt;=&amp;nbsp;Z&lt;sub style=&quot;border-color: var(--border-color); background-color: initial; font-size: 9px;&quot;&gt;оч3&lt;/sub&gt;" style="rhombus;whiteSpace=wrap;html=1;fontFamily=Times New Roman;fontSize=9;" vertex="1" parent="1">
          <mxGeometry x="326" y="1080" width="210" height="80" as="geometry" />
        </mxCell>
        <mxCell id="hfiU2eHEGM3FgHxI7Riw-122" style="edgeStyle=orthogonalEdgeStyle;rounded=0;orthogonalLoop=1;jettySize=auto;html=1;entryX=0.5;entryY=0;entryDx=0;entryDy=0;endArrow=none;endFill=0;fontFamily=Times New Roman;fontSize=9;" edge="1" parent="1" source="hfiU2eHEGM3FgHxI7Riw-123" target="hfiU2eHEGM3FgHxI7Riw-145">
          <mxGeometry relative="1" as="geometry" />
        </mxCell>
        <mxCell id="hfiU2eHEGM3FgHxI7Riw-123" value="Х&lt;sub style=&quot;border-color: var(--border-color); font-size: 9px;&quot;&gt;вх1&lt;/sub&gt;&lt;span style=&quot;font-size: 9px;&quot;&gt;=1&lt;/span&gt;" style="rounded=0;whiteSpace=wrap;html=1;fontFamily=Times New Roman;fontSize=9;" vertex="1" parent="1">
          <mxGeometry x="351" y="1200" width="120" height="30" as="geometry" />
        </mxCell>
        <mxCell id="hfiU2eHEGM3FgHxI7Riw-124" value="Да, клиент распределен к первому клерку, &lt;br style=&quot;font-size: 9px;&quot;&gt;так как у него наименьшая очередь" style="text;html=1;align=left;verticalAlign=middle;resizable=0;points=[];autosize=1;strokeColor=none;fillColor=none;fontFamily=Times New Roman;fontSize=9;" vertex="1" parent="1">
          <mxGeometry x="196" y="1155" width="180" height="40" as="geometry" />
        </mxCell>
        <mxCell id="hfiU2eHEGM3FgHxI7Riw-125" value="&lt;span style=&quot;color: rgb(0, 0, 0); font-size: 9px; font-style: normal; font-variant-ligatures: normal; font-variant-caps: normal; font-weight: 400; letter-spacing: normal; orphans: 2; text-align: left; text-indent: 0px; text-transform: none; widows: 2; word-spacing: 0px; -webkit-text-stroke-width: 0px; background-color: rgb(251, 251, 251); text-decoration-thickness: initial; text-decoration-style: initial; text-decoration-color: initial; float: none; display: inline !important;&quot;&gt;Нет, клиент распределен &lt;br style=&quot;font-size: 9px;&quot;&gt;в другую очередь&lt;/span&gt;" style="text;whiteSpace=wrap;html=1;fontFamily=Times New Roman;fontSize=9;" vertex="1" parent="1">
          <mxGeometry x="536" y="1080" width="250" height="50" as="geometry" />
        </mxCell>
        <mxCell id="hfiU2eHEGM3FgHxI7Riw-126" style="edgeStyle=orthogonalEdgeStyle;rounded=0;orthogonalLoop=1;jettySize=auto;html=1;entryX=1;entryY=0.5;entryDx=0;entryDy=0;endArrow=none;endFill=0;fontFamily=Times New Roman;fontSize=9;" edge="1" parent="1" source="hfiU2eHEGM3FgHxI7Riw-129" target="hfiU2eHEGM3FgHxI7Riw-121">
          <mxGeometry relative="1" as="geometry">
            <Array as="points">
              <mxPoint x="646" y="1120" />
            </Array>
          </mxGeometry>
        </mxCell>
        <mxCell id="hfiU2eHEGM3FgHxI7Riw-127" style="edgeStyle=orthogonalEdgeStyle;rounded=0;orthogonalLoop=1;jettySize=auto;html=1;entryX=0.5;entryY=0;entryDx=0;entryDy=0;endArrow=none;endFill=0;fontFamily=Times New Roman;fontSize=9;" edge="1" parent="1" source="hfiU2eHEGM3FgHxI7Riw-129" target="hfiU2eHEGM3FgHxI7Riw-131">
          <mxGeometry relative="1" as="geometry" />
        </mxCell>
        <mxCell id="hfiU2eHEGM3FgHxI7Riw-128" style="edgeStyle=orthogonalEdgeStyle;rounded=0;orthogonalLoop=1;jettySize=auto;html=1;endArrow=none;endFill=0;entryX=0.5;entryY=0;entryDx=0;entryDy=0;fontFamily=Times New Roman;fontSize=9;" edge="1" parent="1" source="hfiU2eHEGM3FgHxI7Riw-129" target="hfiU2eHEGM3FgHxI7Riw-135">
          <mxGeometry relative="1" as="geometry">
            <mxPoint x="841" y="1300" as="targetPoint" />
          </mxGeometry>
        </mxCell>
        <mxCell id="hfiU2eHEGM3FgHxI7Riw-129" value="&lt;span style=&quot;border-color: var(--border-color); font-size: 9px;&quot;&gt;Z&lt;sub style=&quot;border-color: var(--border-color); background-color: initial; font-size: 9px;&quot;&gt;оч2&lt;/sub&gt;&amp;lt;=&amp;nbsp;&lt;/span&gt;&lt;span style=&quot;border-color: var(--border-color); font-size: 9px;&quot;&gt;Z&lt;sub style=&quot;border-color: var(--border-color); background-color: initial; font-size: 9px;&quot;&gt;оч3&lt;/sub&gt;&lt;/span&gt;" style="rhombus;whiteSpace=wrap;html=1;fontFamily=Times New Roman;fontSize=9;" vertex="1" parent="1">
          <mxGeometry x="541" y="1175" width="210" height="80" as="geometry" />
        </mxCell>
        <mxCell id="hfiU2eHEGM3FgHxI7Riw-130" style="edgeStyle=orthogonalEdgeStyle;rounded=0;orthogonalLoop=1;jettySize=auto;html=1;endArrow=none;endFill=0;fontFamily=Times New Roman;fontSize=9;" edge="1" parent="1" source="hfiU2eHEGM3FgHxI7Riw-131">
          <mxGeometry relative="1" as="geometry">
            <mxPoint x="646" y="1490" as="targetPoint" />
          </mxGeometry>
        </mxCell>
        <mxCell id="hfiU2eHEGM3FgHxI7Riw-131" value="Х&lt;sub style=&quot;border-color: var(--border-color); font-size: 9px;&quot;&gt;вх2&lt;/sub&gt;&lt;span style=&quot;font-size: 9px;&quot;&gt;=1&lt;/span&gt;" style="rounded=0;whiteSpace=wrap;html=1;fontFamily=Times New Roman;fontSize=9;" vertex="1" parent="1">
          <mxGeometry x="586" y="1300" width="120" height="30" as="geometry" />
        </mxCell>
        <mxCell id="hfiU2eHEGM3FgHxI7Riw-132" value="Да, клиент распределен &lt;br style=&quot;font-size: 9px;&quot;&gt;к первому клерку, &lt;br style=&quot;font-size: 9px;&quot;&gt;так как у него &lt;br style=&quot;font-size: 9px;&quot;&gt;наименьшая очередь" style="text;html=1;align=left;verticalAlign=middle;resizable=0;points=[];autosize=1;strokeColor=none;fillColor=none;fontFamily=Times New Roman;fontSize=9;" vertex="1" parent="1">
          <mxGeometry x="481" y="1235" width="110" height="60" as="geometry" />
        </mxCell>
        <mxCell id="hfiU2eHEGM3FgHxI7Riw-133" value="&lt;span style=&quot;color: rgb(0, 0, 0); font-size: 9px; font-style: normal; font-variant-ligatures: normal; font-variant-caps: normal; font-weight: 400; letter-spacing: normal; orphans: 2; text-align: left; text-indent: 0px; text-transform: none; widows: 2; word-spacing: 0px; -webkit-text-stroke-width: 0px; background-color: rgb(251, 251, 251); text-decoration-thickness: initial; text-decoration-style: initial; text-decoration-color: initial; float: none; display: inline !important;&quot;&gt;Нет, клиент распределен &lt;br style=&quot;font-size: 9px;&quot;&gt;к третьему клерку&lt;/span&gt;" style="text;whiteSpace=wrap;html=1;fontFamily=Times New Roman;fontSize=9;" vertex="1" parent="1">
          <mxGeometry x="751" y="1175" width="250" height="50" as="geometry" />
        </mxCell>
        <mxCell id="hfiU2eHEGM3FgHxI7Riw-134" style="edgeStyle=orthogonalEdgeStyle;rounded=0;orthogonalLoop=1;jettySize=auto;html=1;endArrow=none;endFill=0;fontFamily=Times New Roman;fontSize=9;" edge="1" parent="1" source="hfiU2eHEGM3FgHxI7Riw-135">
          <mxGeometry relative="1" as="geometry">
            <mxPoint x="841" y="1420" as="targetPoint" />
          </mxGeometry>
        </mxCell>
        <mxCell id="hfiU2eHEGM3FgHxI7Riw-135" value="Х&lt;sub style=&quot;border-color: var(--border-color); font-size: 9px;&quot;&gt;вх3&lt;/sub&gt;&lt;span style=&quot;font-size: 9px;&quot;&gt;=1&lt;/span&gt;" style="rounded=0;whiteSpace=wrap;html=1;fontFamily=Times New Roman;fontSize=9;" vertex="1" parent="1">
          <mxGeometry x="781" y="1300" width="120" height="30" as="geometry" />
        </mxCell>
        <mxCell id="hfiU2eHEGM3FgHxI7Riw-136" style="edgeStyle=orthogonalEdgeStyle;rounded=0;orthogonalLoop=1;jettySize=auto;html=1;endArrow=none;endFill=0;fontFamily=Times New Roman;entryX=0.5;entryY=0;entryDx=0;entryDy=0;fontSize=9;" edge="1" parent="1" source="hfiU2eHEGM3FgHxI7Riw-138" target="hfiU2eHEGM3FgHxI7Riw-141">
          <mxGeometry relative="1" as="geometry">
            <mxPoint x="431" y="1480" as="targetPoint" />
          </mxGeometry>
        </mxCell>
        <mxCell id="hfiU2eHEGM3FgHxI7Riw-137" style="edgeStyle=orthogonalEdgeStyle;rounded=0;orthogonalLoop=1;jettySize=auto;html=1;endArrow=none;endFill=0;entryX=0.5;entryY=0;entryDx=0;entryDy=0;fontFamily=Times New Roman;fontSize=9;" edge="1" parent="1" source="hfiU2eHEGM3FgHxI7Riw-138" target="hfiU2eHEGM3FgHxI7Riw-143">
          <mxGeometry relative="1" as="geometry">
            <mxPoint x="271" y="1470" as="targetPoint" />
            <Array as="points">
              <mxPoint x="271" y="1380" />
            </Array>
          </mxGeometry>
        </mxCell>
        <mxCell id="hfiU2eHEGM3FgHxI7Riw-138" value="T&lt;sub style=&quot;border-color: var(--border-color); font-size: 9px;&quot;&gt;обсл1&lt;/sub&gt;&lt;span style=&quot;border-color: var(--border-color); font-size: 9px;&quot;&gt;&amp;lt;=h и&amp;nbsp;&lt;/span&gt;T&lt;sub style=&quot;border-color: var(--border-color); font-size: 9px;&quot;&gt;обсл1&lt;/sub&gt;&lt;span style=&quot;border-color: var(--border-color); font-size: 9px;&quot;&gt;&amp;gt;0&lt;/span&gt;" style="rhombus;whiteSpace=wrap;html=1;fontFamily=Times New Roman;fontSize=9;" vertex="1" parent="1">
          <mxGeometry x="326" y="1340" width="210" height="80" as="geometry" />
        </mxCell>
        <mxCell id="hfiU2eHEGM3FgHxI7Riw-139" value="Нет, обслуживание &lt;br style=&quot;font-size: 9px;&quot;&gt;&lt;div style=&quot;font-size: 9px;&quot;&gt;&lt;span style=&quot;background-color: initial; font-size: 9px;&quot;&gt;еще не закончено или&lt;/span&gt;&lt;/div&gt;&lt;div style=&quot;font-size: 9px;&quot;&gt;&lt;span style=&quot;background-color: initial; font-size: 9px;&quot;&gt;не начилось&amp;nbsp;&lt;/span&gt;&lt;/div&gt;" style="text;html=1;align=left;verticalAlign=middle;resizable=0;points=[];autosize=1;strokeColor=none;fillColor=none;fontFamily=Times New Roman;fontSize=9;" vertex="1" parent="1">
          <mxGeometry x="456" y="1415" width="110" height="50" as="geometry" />
        </mxCell>
        <mxCell id="hfiU2eHEGM3FgHxI7Riw-140" style="edgeStyle=orthogonalEdgeStyle;rounded=0;orthogonalLoop=1;jettySize=auto;html=1;endArrow=none;endFill=0;entryX=0.5;entryY=0;entryDx=0;entryDy=0;fontFamily=Times New Roman;fontSize=9;" edge="1" parent="1" source="hfiU2eHEGM3FgHxI7Riw-141" target="hfiU2eHEGM3FgHxI7Riw-158">
          <mxGeometry relative="1" as="geometry">
            <mxPoint x="431" y="1580" as="targetPoint" />
            <Array as="points">
              <mxPoint x="431" y="1560" />
            </Array>
          </mxGeometry>
        </mxCell>
        <mxCell id="hfiU2eHEGM3FgHxI7Riw-141" value="Х&lt;sub style=&quot;border-color: var(--border-color); font-size: 9px;&quot;&gt;вых1&lt;/sub&gt;&lt;span style=&quot;font-size: 9px;&quot;&gt;=0&lt;/span&gt;" style="rounded=0;whiteSpace=wrap;html=1;fontFamily=Times New Roman;fontSize=9;" vertex="1" parent="1">
          <mxGeometry x="371" y="1470" width="120" height="30" as="geometry" />
        </mxCell>
        <mxCell id="hfiU2eHEGM3FgHxI7Riw-142" style="edgeStyle=orthogonalEdgeStyle;rounded=0;orthogonalLoop=1;jettySize=auto;html=1;endArrow=none;endFill=0;entryX=0.5;entryY=0;entryDx=0;entryDy=0;fontFamily=Times New Roman;fontSize=9;" edge="1" parent="1" source="hfiU2eHEGM3FgHxI7Riw-143" target="hfiU2eHEGM3FgHxI7Riw-147">
          <mxGeometry relative="1" as="geometry">
            <mxPoint x="271" y="1600" as="targetPoint" />
          </mxGeometry>
        </mxCell>
        <mxCell id="hfiU2eHEGM3FgHxI7Riw-143" value="Х&lt;sub style=&quot;border-color: var(--border-color); font-size: 9px;&quot;&gt;вых1&lt;/sub&gt;&lt;span style=&quot;font-size: 9px;&quot;&gt;=1&lt;/span&gt;" style="rounded=0;whiteSpace=wrap;html=1;fontFamily=Times New Roman;fontSize=9;" vertex="1" parent="1">
          <mxGeometry x="211" y="1470" width="120" height="30" as="geometry" />
        </mxCell>
        <mxCell id="hfiU2eHEGM3FgHxI7Riw-144" style="edgeStyle=orthogonalEdgeStyle;rounded=0;orthogonalLoop=1;jettySize=auto;html=1;entryX=0.5;entryY=0;entryDx=0;entryDy=0;endArrow=none;endFill=0;fontFamily=Times New Roman;fontSize=9;" edge="1" parent="1" source="hfiU2eHEGM3FgHxI7Riw-145" target="hfiU2eHEGM3FgHxI7Riw-138">
          <mxGeometry relative="1" as="geometry" />
        </mxCell>
        <mxCell id="hfiU2eHEGM3FgHxI7Riw-145" value="Z&lt;sub style=&quot;border-color: var(--border-color); background-color: initial; font-size: 9px;&quot;&gt;общ1&lt;/sub&gt;&lt;span style=&quot;border-color: var(--border-color); background-color: initial; font-size: 9px;&quot;&gt;+=1&lt;/span&gt;" style="rounded=0;whiteSpace=wrap;html=1;fontFamily=Times New Roman;fontSize=9;" vertex="1" parent="1">
          <mxGeometry x="351" y="1269" width="120" height="35" as="geometry" />
        </mxCell>
        <mxCell id="hfiU2eHEGM3FgHxI7Riw-146" style="edgeStyle=orthogonalEdgeStyle;rounded=0;orthogonalLoop=1;jettySize=auto;html=1;entryX=0.5;entryY=0;entryDx=0;entryDy=0;endArrow=none;endFill=0;fontFamily=Times New Roman;fontSize=9;" edge="1" parent="1" source="hfiU2eHEGM3FgHxI7Riw-147" target="hfiU2eHEGM3FgHxI7Riw-149">
          <mxGeometry relative="1" as="geometry" />
        </mxCell>
        <mxCell id="hfiU2eHEGM3FgHxI7Riw-147" value="Z&lt;sub style=&quot;font-size: 9px;&quot;&gt;обс1&lt;/sub&gt;+=Z&lt;sub style=&quot;font-size: 9px;&quot;&gt;тек_обс1&lt;/sub&gt;" style="rounded=0;whiteSpace=wrap;html=1;fontFamily=Times New Roman;fontSize=9;" vertex="1" parent="1">
          <mxGeometry x="211" y="1520" width="120" height="30" as="geometry" />
        </mxCell>
        <mxCell id="hfiU2eHEGM3FgHxI7Riw-148" style="edgeStyle=orthogonalEdgeStyle;rounded=0;orthogonalLoop=1;jettySize=auto;html=1;entryX=0.5;entryY=0;entryDx=0;entryDy=0;endArrow=none;endFill=0;fontFamily=Times New Roman;fontSize=9;" edge="1" parent="1" source="hfiU2eHEGM3FgHxI7Riw-149">
          <mxGeometry relative="1" as="geometry">
            <mxPoint x="271" y="1630" as="targetPoint" />
          </mxGeometry>
        </mxCell>
        <mxCell id="hfiU2eHEGM3FgHxI7Riw-149" value="Z&lt;sub style=&quot;font-size: 9px;&quot;&gt;оч&lt;span style=&quot;border-color: var(--border-color); font-size: 9px;&quot;&gt;1&lt;/span&gt;&lt;/sub&gt;=Z&lt;sub style=&quot;font-size: 9px;&quot;&gt;общ&lt;span style=&quot;border-color: var(--border-color); font-size: 9px;&quot;&gt;1&lt;/span&gt;&lt;/sub&gt;&lt;span style=&quot;font-size: 9px;&quot;&gt;-&lt;/span&gt;Z&lt;sub style=&quot;font-size: 9px;&quot;&gt;обс&lt;span style=&quot;border-color: var(--border-color); font-size: 9px;&quot;&gt;1&lt;/span&gt;&lt;/sub&gt;" style="rounded=0;whiteSpace=wrap;html=1;fontFamily=Times New Roman;fontSize=9;" vertex="1" parent="1">
          <mxGeometry x="211" y="1570" width="120" height="30" as="geometry" />
        </mxCell>
        <mxCell id="hfiU2eHEGM3FgHxI7Riw-150" style="edgeStyle=orthogonalEdgeStyle;rounded=0;orthogonalLoop=1;jettySize=auto;html=1;endArrow=none;endFill=0;entryX=0.5;entryY=0;entryDx=0;entryDy=0;fontFamily=Times New Roman;fontSize=9;" edge="1" parent="1" target="hfiU2eHEGM3FgHxI7Riw-152">
          <mxGeometry relative="1" as="geometry">
            <mxPoint x="271" y="1870" as="targetPoint" />
            <mxPoint x="271" y="1710" as="sourcePoint" />
          </mxGeometry>
        </mxCell>
        <mxCell id="hfiU2eHEGM3FgHxI7Riw-151" style="edgeStyle=orthogonalEdgeStyle;rounded=0;orthogonalLoop=1;jettySize=auto;html=1;endArrow=classicThin;endFill=1;fontFamily=Times New Roman;fontSize=9;" edge="1" parent="1" source="hfiU2eHEGM3FgHxI7Riw-152">
          <mxGeometry relative="1" as="geometry">
            <mxPoint x="701" y="1830" as="targetPoint" />
            <Array as="points">
              <mxPoint x="271" y="1830" />
              <mxPoint x="701" y="1830" />
            </Array>
          </mxGeometry>
        </mxCell>
        <mxCell id="hfiU2eHEGM3FgHxI7Riw-152" value="Z&lt;sub style=&quot;font-size: 9px;&quot;&gt;тек_обс&lt;span style=&quot;border-color: var(--border-color); font-size: 9px;&quot;&gt;1&lt;/span&gt;&lt;/sub&gt;=6" style="rounded=0;whiteSpace=wrap;html=1;fontFamily=Times New Roman;fontSize=9;" vertex="1" parent="1">
          <mxGeometry x="211" y="1780" width="120" height="30" as="geometry" />
        </mxCell>
        <mxCell id="hfiU2eHEGM3FgHxI7Riw-153" value="Нет, клерк обслуживает &lt;br style=&quot;font-size: 9px;&quot;&gt;новых клиентов &amp;nbsp; &amp;nbsp;" style="text;html=1;align=left;verticalAlign=middle;resizable=0;points=[];autosize=1;strokeColor=none;fillColor=none;fontFamily=Times New Roman;fontSize=9;" vertex="1" parent="1">
          <mxGeometry x="301" y="1700" width="110" height="40" as="geometry" />
        </mxCell>
        <mxCell id="hfiU2eHEGM3FgHxI7Riw-154" style="edgeStyle=orthogonalEdgeStyle;rounded=0;orthogonalLoop=1;jettySize=auto;html=1;entryX=1;entryY=0.5;entryDx=0;entryDy=0;endArrow=none;endFill=0;fontFamily=Times New Roman;fontSize=9;" edge="1" parent="1" source="hfiU2eHEGM3FgHxI7Riw-156">
          <mxGeometry relative="1" as="geometry">
            <mxPoint x="376" y="1670" as="targetPoint" />
          </mxGeometry>
        </mxCell>
        <mxCell id="hfiU2eHEGM3FgHxI7Riw-155" style="edgeStyle=orthogonalEdgeStyle;rounded=0;orthogonalLoop=1;jettySize=auto;html=1;endArrow=none;endFill=0;fontFamily=Times New Roman;fontSize=9;" edge="1" parent="1" source="hfiU2eHEGM3FgHxI7Riw-156">
          <mxGeometry relative="1" as="geometry">
            <mxPoint x="431" y="1830" as="targetPoint" />
          </mxGeometry>
        </mxCell>
        <mxCell id="hfiU2eHEGM3FgHxI7Riw-156" value="Z&lt;sub style=&quot;font-size: 9px;&quot;&gt;тек_обс&lt;span style=&quot;border-color: var(--border-color); font-size: 9px;&quot;&gt;1&lt;/span&gt;&lt;/sub&gt;=Z&lt;sub style=&quot;border-color: var(--border-color); font-size: 9px;&quot;&gt;оч1&lt;/sub&gt;" style="rounded=0;whiteSpace=wrap;html=1;fontFamily=Times New Roman;fontSize=9;" vertex="1" parent="1">
          <mxGeometry x="371" y="1780" width="120" height="30" as="geometry" />
        </mxCell>
        <mxCell id="hfiU2eHEGM3FgHxI7Riw-157" style="edgeStyle=orthogonalEdgeStyle;rounded=0;orthogonalLoop=1;jettySize=auto;html=1;fontFamily=Times New Roman;endArrow=classic;endFill=1;exitX=0.5;exitY=1;exitDx=0;exitDy=0;fontSize=9;" edge="1" parent="1" source="hfiU2eHEGM3FgHxI7Riw-158">
          <mxGeometry relative="1" as="geometry">
            <mxPoint x="701" y="1750" as="targetPoint" />
            <Array as="points">
              <mxPoint x="506" y="1670" />
              <mxPoint x="506" y="1750" />
              <mxPoint x="701" y="1750" />
            </Array>
          </mxGeometry>
        </mxCell>
        <mxCell id="hfiU2eHEGM3FgHxI7Riw-158" value="Z&lt;sub style=&quot;border-color: var(--border-color); font-size: 9px;&quot;&gt;тек_обс1&lt;/sub&gt;&lt;span style=&quot;border-color: var(--border-color); font-size: 9px;&quot;&gt;&amp;gt;0&lt;/span&gt;" style="rhombus;whiteSpace=wrap;html=1;fontFamily=Times New Roman;fontSize=9;" vertex="1" parent="1">
          <mxGeometry x="400" y="1590" width="210" height="80" as="geometry" />
        </mxCell>
        <mxCell id="hfiU2eHEGM3FgHxI7Riw-159" value="Да, клерк &lt;br style=&quot;font-size: 9px;&quot;&gt;продолжает &lt;br style=&quot;font-size: 9px;&quot;&gt;обслуживать&amp;nbsp; &amp;nbsp;" style="text;html=1;align=left;verticalAlign=middle;resizable=0;points=[];autosize=1;strokeColor=none;fillColor=none;fontFamily=Times New Roman;fontSize=9;" vertex="1" parent="1">
          <mxGeometry x="515" y="1695" width="80" height="50" as="geometry" />
        </mxCell>
        <mxCell id="hfiU2eHEGM3FgHxI7Riw-160" value="Нет, клерк обслуживает&lt;br style=&quot;border-color: var(--border-color); font-size: 9px;&quot;&gt;новых клиентов&amp;nbsp; &amp;nbsp;&amp;nbsp;" style="text;html=1;align=left;verticalAlign=middle;resizable=0;points=[];autosize=1;strokeColor=none;fillColor=none;fontFamily=Times New Roman;fontSize=9;" vertex="1" parent="1">
          <mxGeometry x="610" y="1590" width="110" height="40" as="geometry" />
        </mxCell>
        <mxCell id="hfiU2eHEGM3FgHxI7Riw-161" style="edgeStyle=orthogonalEdgeStyle;rounded=0;orthogonalLoop=1;jettySize=auto;html=1;entryX=1;entryY=0.5;entryDx=0;entryDy=0;endArrow=none;endFill=0;fontFamily=Times New Roman;exitX=0.5;exitY=0;exitDx=0;exitDy=0;fontSize=9;" edge="1" parent="1" source="hfiU2eHEGM3FgHxI7Riw-163" target="hfiU2eHEGM3FgHxI7Riw-158">
          <mxGeometry relative="1" as="geometry">
            <Array as="points">
              <mxPoint x="701" y="1630" />
            </Array>
          </mxGeometry>
        </mxCell>
        <mxCell id="hfiU2eHEGM3FgHxI7Riw-162" style="edgeStyle=orthogonalEdgeStyle;rounded=0;orthogonalLoop=1;jettySize=auto;html=1;endArrow=none;endFill=0;entryX=0.5;entryY=0;entryDx=0;entryDy=0;fontFamily=Times New Roman;fontSize=9;" edge="1" parent="1" source="hfiU2eHEGM3FgHxI7Riw-163" target="hfiU2eHEGM3FgHxI7Riw-168">
          <mxGeometry relative="1" as="geometry">
            <mxPoint x="701" y="1880" as="targetPoint" />
          </mxGeometry>
        </mxCell>
        <mxCell id="hfiU2eHEGM3FgHxI7Riw-163" value="Z&lt;sub style=&quot;font-size: 9px;&quot;&gt;тек_обс&lt;span style=&quot;border-color: var(--border-color); font-size: 9px;&quot;&gt;1&lt;/span&gt;&lt;/sub&gt;=Z&lt;sub style=&quot;border-color: var(--border-color); font-size: 9px;&quot;&gt;оч1&lt;/sub&gt;" style="rounded=0;whiteSpace=wrap;html=1;fontFamily=Times New Roman;fontSize=9;" vertex="1" parent="1">
          <mxGeometry x="641" y="1660" width="120" height="30" as="geometry" />
        </mxCell>
        <mxCell id="hfiU2eHEGM3FgHxI7Riw-164" style="edgeStyle=orthogonalEdgeStyle;rounded=0;orthogonalLoop=1;jettySize=auto;html=1;entryX=0.5;entryY=0;entryDx=0;entryDy=0;endArrow=none;endFill=0;exitX=0;exitY=0.5;exitDx=0;exitDy=0;fontFamily=Times New Roman;fontSize=9;" edge="1" parent="1" source="hfiU2eHEGM3FgHxI7Riw-166" target="hfiU2eHEGM3FgHxI7Riw-173">
          <mxGeometry relative="1" as="geometry" />
        </mxCell>
        <mxCell id="hfiU2eHEGM3FgHxI7Riw-165" style="edgeStyle=orthogonalEdgeStyle;rounded=0;orthogonalLoop=1;jettySize=auto;html=1;entryX=0.5;entryY=0;entryDx=0;entryDy=0;endArrow=none;endFill=0;fontFamily=Times New Roman;fontSize=9;" edge="1" parent="1" source="hfiU2eHEGM3FgHxI7Riw-166" target="hfiU2eHEGM3FgHxI7Riw-183">
          <mxGeometry relative="1" as="geometry">
            <mxPoint x="856" y="2040" as="targetPoint" />
            <Array as="points">
              <mxPoint x="856" y="1970" />
              <mxPoint x="856" y="2070" />
            </Array>
          </mxGeometry>
        </mxCell>
        <mxCell id="hfiU2eHEGM3FgHxI7Riw-166" value="&lt;span style=&quot;border-color: var(--border-color); font-size: 9px;&quot;&gt;T&lt;sub style=&quot;border-color: var(--border-color); font-size: 9px;&quot;&gt;обсл1&lt;/sub&gt;&amp;lt;=h&lt;/span&gt;" style="rhombus;whiteSpace=wrap;html=1;fontFamily=Times New Roman;fontSize=9;" vertex="1" parent="1">
          <mxGeometry x="596" y="1930" width="210" height="80" as="geometry" />
        </mxCell>
        <mxCell id="hfiU2eHEGM3FgHxI7Riw-167" style="edgeStyle=orthogonalEdgeStyle;rounded=0;orthogonalLoop=1;jettySize=auto;html=1;entryX=0.5;entryY=0;entryDx=0;entryDy=0;endArrow=none;endFill=0;fontFamily=Times New Roman;fontSize=9;" edge="1" parent="1" source="hfiU2eHEGM3FgHxI7Riw-168" target="hfiU2eHEGM3FgHxI7Riw-166">
          <mxGeometry relative="1" as="geometry" />
        </mxCell>
        <mxCell id="hfiU2eHEGM3FgHxI7Riw-168" value="&lt;span style=&quot;font-size: 9px;&quot;&gt;T&lt;/span&gt;&lt;sub style=&quot;font-size: 9px;&quot;&gt;поиск1&lt;/sub&gt;=T&lt;sub style=&quot;border-color: var(--border-color); font-size: 9px;&quot;&gt;поиск_тов&lt;/sub&gt;&lt;span style=&quot;border-color: var(--border-color); font-size: 9px;&quot;&gt;*&lt;/span&gt;Z&lt;sub style=&quot;border-color: var(--border-color); font-size: 9px;&quot;&gt;тек_обс1&lt;/sub&gt;" style="rounded=0;whiteSpace=wrap;html=1;fontFamily=Times New Roman;fontSize=9;" vertex="1" parent="1">
          <mxGeometry x="606" y="1860" width="190" height="30" as="geometry" />
        </mxCell>
        <mxCell id="hfiU2eHEGM3FgHxI7Riw-169" value="Да, клерк заканчивает &lt;br style=&quot;font-size: 9px;&quot;&gt;обслуживать клиентов&amp;nbsp;" style="text;html=1;align=left;verticalAlign=middle;resizable=0;points=[];autosize=1;strokeColor=none;fillColor=none;fontFamily=Times New Roman;fontSize=9;" vertex="1" parent="1">
          <mxGeometry x="806" y="1923" width="110" height="40" as="geometry" />
        </mxCell>
        <mxCell id="hfiU2eHEGM3FgHxI7Riw-170" value="Нет, клерк продолжает &lt;br style=&quot;font-size: 9px;&quot;&gt;обслуживать клиентов" style="text;html=1;align=left;verticalAlign=middle;resizable=0;points=[];autosize=1;strokeColor=none;fillColor=none;fontFamily=Times New Roman;fontSize=9;" vertex="1" parent="1">
          <mxGeometry x="460.5" y="1924" width="110" height="40" as="geometry" />
        </mxCell>
        <mxCell id="hfiU2eHEGM3FgHxI7Riw-171" style="edgeStyle=orthogonalEdgeStyle;rounded=0;orthogonalLoop=1;jettySize=auto;html=1;entryX=0.5;entryY=0;entryDx=0;entryDy=0;endArrow=none;endFill=0;fontFamily=Times New Roman;fontSize=9;" edge="1" parent="1" source="hfiU2eHEGM3FgHxI7Riw-173" target="hfiU2eHEGM3FgHxI7Riw-175">
          <mxGeometry relative="1" as="geometry" />
        </mxCell>
        <mxCell id="hfiU2eHEGM3FgHxI7Riw-172" style="edgeStyle=orthogonalEdgeStyle;rounded=0;orthogonalLoop=1;jettySize=auto;html=1;endArrow=none;endFill=0;entryX=0.5;entryY=0;entryDx=0;entryDy=0;exitX=0;exitY=0.5;exitDx=0;exitDy=0;fontFamily=Times New Roman;fontSize=9;" edge="1" parent="1" source="hfiU2eHEGM3FgHxI7Riw-173" target="hfiU2eHEGM3FgHxI7Riw-178">
          <mxGeometry relative="1" as="geometry">
            <mxPoint x="411" y="2130" as="targetPoint" />
            <Array as="points">
              <mxPoint x="396" y="2155" />
            </Array>
          </mxGeometry>
        </mxCell>
        <mxCell id="hfiU2eHEGM3FgHxI7Riw-173" value="&lt;span style=&quot;border-color: var(--border-color); font-size: 9px;&quot;&gt;T&lt;sub style=&quot;border-color: var(--border-color); font-size: 9px;&quot;&gt;обсл1&lt;/sub&gt;&amp;gt;=h&lt;/span&gt;" style="rhombus;whiteSpace=wrap;html=1;fontFamily=Times New Roman;fontSize=9;" vertex="1" parent="1">
          <mxGeometry x="416" y="2115" width="210" height="80" as="geometry" />
        </mxCell>
        <mxCell id="hfiU2eHEGM3FgHxI7Riw-174" style="edgeStyle=orthogonalEdgeStyle;rounded=0;orthogonalLoop=1;jettySize=auto;html=1;endArrow=none;endFill=0;fontFamily=Times New Roman;fontSize=9;" edge="1" parent="1" source="hfiU2eHEGM3FgHxI7Riw-175">
          <mxGeometry relative="1" as="geometry">
            <mxPoint x="397" y="2330" as="targetPoint" />
            <Array as="points">
              <mxPoint x="521" y="2330" />
            </Array>
          </mxGeometry>
        </mxCell>
        <mxCell id="hfiU2eHEGM3FgHxI7Riw-175" value="T&lt;sub style=&quot;border-color: var(--border-color); font-size: 9px;&quot;&gt;обсл1&lt;/sub&gt;=T&lt;sub style=&quot;border-color: var(--border-color); font-size: 9px;&quot;&gt;обсл1 &lt;/sub&gt;&lt;span style=&quot;border-color: var(--border-color); font-size: 9px;&quot;&gt;- h&lt;/span&gt;" style="rounded=0;whiteSpace=wrap;html=1;fontFamily=Times New Roman;fontSize=9;" vertex="1" parent="1">
          <mxGeometry x="463.5" y="2230" width="115" height="30" as="geometry" />
        </mxCell>
        <mxCell id="hfiU2eHEGM3FgHxI7Riw-176" value="1" style="text;html=1;align=center;verticalAlign=middle;resizable=0;points=[];autosize=1;strokeColor=none;fillColor=none;fontFamily=Times New Roman;fontSize=9;" vertex="1" parent="1">
          <mxGeometry x="520" y="2200" width="30" height="20" as="geometry" />
        </mxCell>
        <mxCell id="hfiU2eHEGM3FgHxI7Riw-177" value="0" style="text;html=1;align=center;verticalAlign=middle;resizable=0;points=[];autosize=1;strokeColor=none;fillColor=none;fontFamily=Times New Roman;fontSize=9;" vertex="1" parent="1">
          <mxGeometry x="386" y="2125" width="30" height="20" as="geometry" />
        </mxCell>
        <mxCell id="hfiU2eHEGM3FgHxI7Riw-178" value="T&lt;sub style=&quot;border-color: var(--border-color); font-size: 9px;&quot;&gt;обсл1&lt;/sub&gt;=0" style="rounded=0;whiteSpace=wrap;html=1;fontFamily=Times New Roman;fontSize=9;" vertex="1" parent="1">
          <mxGeometry x="341" y="2230" width="110" height="30" as="geometry" />
        </mxCell>
        <mxCell id="hfiU2eHEGM3FgHxI7Riw-179" style="edgeStyle=orthogonalEdgeStyle;rounded=0;orthogonalLoop=1;jettySize=auto;html=1;entryX=0.5;entryY=1;entryDx=0;entryDy=0;endArrow=none;endFill=0;fontFamily=Times New Roman;fontSize=9;" edge="1" parent="1" source="hfiU2eHEGM3FgHxI7Riw-181" target="hfiU2eHEGM3FgHxI7Riw-183">
          <mxGeometry relative="1" as="geometry" />
        </mxCell>
        <mxCell id="hfiU2eHEGM3FgHxI7Riw-180" style="edgeStyle=orthogonalEdgeStyle;rounded=0;orthogonalLoop=1;jettySize=auto;html=1;endArrow=none;endFill=0;fontFamily=Times New Roman;fontSize=9;" edge="1" parent="1" source="hfiU2eHEGM3FgHxI7Riw-181">
          <mxGeometry relative="1" as="geometry">
            <mxPoint x="521" y="2330" as="targetPoint" />
            <Array as="points">
              <mxPoint x="856" y="2330" />
            </Array>
          </mxGeometry>
        </mxCell>
        <mxCell id="hfiU2eHEGM3FgHxI7Riw-181" value="T&lt;sub style=&quot;border-color: var(--border-color); font-size: 9px;&quot;&gt;обсл1&lt;/sub&gt;=4+T&lt;sub style=&quot;border-color: var(--border-color); font-size: 9px;&quot;&gt;поиск1&lt;/sub&gt;" style="rounded=0;whiteSpace=wrap;html=1;fontFamily=Times New Roman;fontSize=9;" vertex="1" parent="1">
          <mxGeometry x="801" y="2230" width="110" height="30" as="geometry" />
        </mxCell>
        <mxCell id="hfiU2eHEGM3FgHxI7Riw-182" style="edgeStyle=orthogonalEdgeStyle;rounded=0;orthogonalLoop=1;jettySize=auto;html=1;endArrow=none;endFill=0;fontFamily=Times New Roman;fontSize=9;" edge="1" parent="1" source="hfiU2eHEGM3FgHxI7Riw-183">
          <mxGeometry relative="1" as="geometry">
            <mxPoint x="521" y="2080" as="targetPoint" />
          </mxGeometry>
        </mxCell>
        <mxCell id="hfiU2eHEGM3FgHxI7Riw-183" value="Z&lt;sub style=&quot;border-color: var(--border-color); font-size: 9px;&quot;&gt;тек_обс1&lt;/sub&gt;&lt;span style=&quot;border-color: var(--border-color); font-size: 9px;&quot;&gt;&amp;gt;0&lt;/span&gt;" style="rhombus;whiteSpace=wrap;html=1;fontFamily=Times New Roman;fontSize=9;" vertex="1" parent="1">
          <mxGeometry x="751" y="2040" width="210" height="80" as="geometry" />
        </mxCell>
        <mxCell id="hfiU2eHEGM3FgHxI7Riw-184" value="Нет, клерк продолжает обслуживать&amp;nbsp;&amp;nbsp;" style="text;html=1;align=left;verticalAlign=middle;resizable=0;points=[];autosize=1;strokeColor=none;fillColor=none;fontFamily=Times New Roman;fontSize=9;" vertex="1" parent="1">
          <mxGeometry x="571" y="2055" width="170" height="20" as="geometry" />
        </mxCell>
        <mxCell id="hfiU2eHEGM3FgHxI7Riw-185" value="Да, клерк &lt;br style=&quot;font-size: 9px;&quot;&gt;обслуживает новых&lt;br style=&quot;font-size: 9px;&quot;&gt;клиентов&amp;nbsp; &amp;nbsp;" style="text;html=1;align=left;verticalAlign=middle;resizable=0;points=[];autosize=1;strokeColor=none;fillColor=none;fontFamily=Times New Roman;fontSize=9;" vertex="1" parent="1">
          <mxGeometry x="870" y="2120" width="100" height="50" as="geometry" />
        </mxCell>
        <mxCell id="hfiU2eHEGM3FgHxI7Riw-186" style="edgeStyle=orthogonalEdgeStyle;rounded=0;orthogonalLoop=1;jettySize=auto;html=1;endArrow=none;endFill=0;fontFamily=Times New Roman;fontSize=9;" edge="1" parent="1">
          <mxGeometry relative="1" as="geometry">
            <mxPoint x="396" y="2330" as="targetPoint" />
            <Array as="points">
              <mxPoint x="646" y="1550" />
              <mxPoint x="991" y="1550" />
              <mxPoint x="991" y="2330" />
              <mxPoint x="396" y="2330" />
            </Array>
            <mxPoint x="646.0526315789475" y="1485" as="sourcePoint" />
          </mxGeometry>
        </mxCell>
        <mxCell id="hfiU2eHEGM3FgHxI7Riw-188" style="edgeStyle=orthogonalEdgeStyle;rounded=0;orthogonalLoop=1;jettySize=auto;html=1;endArrow=none;endFill=0;fontFamily=Times New Roman;fontSize=9;" edge="1" parent="1">
          <mxGeometry relative="1" as="geometry">
            <mxPoint x="841" y="1550" as="targetPoint" />
            <mxPoint x="841" y="1405" as="sourcePoint" />
          </mxGeometry>
        </mxCell>
        <mxCell id="hfiU2eHEGM3FgHxI7Riw-190" value="t+=h" style="rounded=0;whiteSpace=wrap;html=1;fontFamily=Times New Roman;fontSize=9;" vertex="1" parent="1">
          <mxGeometry x="505" y="930" width="120" height="30" as="geometry" />
        </mxCell>
        <mxCell id="hfiU2eHEGM3FgHxI7Riw-192" style="edgeStyle=orthogonalEdgeStyle;rounded=0;orthogonalLoop=1;jettySize=auto;html=1;endArrow=classicThin;endFill=1;" edge="1" parent="1">
          <mxGeometry relative="1" as="geometry">
            <mxPoint x="566" y="820" as="targetPoint" />
            <Array as="points">
              <mxPoint x="398" y="2330" />
              <mxPoint x="123" y="2330" />
              <mxPoint x="123" y="820" />
            </Array>
            <mxPoint x="398" y="2260" as="sourcePoint" />
          </mxGeometry>
        </mxCell>
        <mxCell id="hfiU2eHEGM3FgHxI7Riw-196" style="edgeStyle=orthogonalEdgeStyle;rounded=0;orthogonalLoop=1;jettySize=auto;html=1;strokeColor=default;align=center;verticalAlign=middle;fontFamily=Helvetica;fontSize=11;fontColor=default;labelBackgroundColor=default;endArrow=none;endFill=0;" edge="1" parent="1" source="hfiU2eHEGM3FgHxI7Riw-195">
          <mxGeometry relative="1" as="geometry">
            <mxPoint x="410" y="260" as="targetPoint" />
            <Array as="points">
              <mxPoint x="991" y="1090" />
              <mxPoint x="100" y="1090" />
              <mxPoint x="100" y="260" />
            </Array>
          </mxGeometry>
        </mxCell>
        <mxCell id="hfiU2eHEGM3FgHxI7Riw-197" style="edgeStyle=orthogonalEdgeStyle;rounded=0;orthogonalLoop=1;jettySize=auto;html=1;strokeColor=default;align=center;verticalAlign=middle;fontFamily=Helvetica;fontSize=11;fontColor=default;labelBackgroundColor=default;endArrow=none;endFill=0;entryX=0.5;entryY=0;entryDx=0;entryDy=0;entryPerimeter=0;" edge="1" parent="1" source="hfiU2eHEGM3FgHxI7Riw-195" target="hfiU2eHEGM3FgHxI7Riw-198">
          <mxGeometry relative="1" as="geometry">
            <mxPoint x="1120" y="1110" as="targetPoint" />
            <Array as="points">
              <mxPoint x="1125" y="1010" />
              <mxPoint x="1125" y="2360" />
              <mxPoint x="526" y="2360" />
            </Array>
          </mxGeometry>
        </mxCell>
        <mxCell id="hfiU2eHEGM3FgHxI7Riw-195" value="N &amp;lt; N_new" style="rhombus;whiteSpace=wrap;html=1;fontFamily=Helvetica;fontSize=11;fontColor=default;labelBackgroundColor=default;" vertex="1" parent="1">
          <mxGeometry x="901" y="970" width="179" height="80" as="geometry" />
        </mxCell>
        <mxCell id="hfiU2eHEGM3FgHxI7Riw-198" value="Конец" style="strokeWidth=1;html=1;shape=mxgraph.flowchart.terminator;whiteSpace=wrap;fontFamily=Times New Roman;" vertex="1" parent="1">
          <mxGeometry x="481" y="2380" width="90" height="50" as="geometry" />
        </mxCell>
        <mxCell id="hfiU2eHEGM3FgHxI7Riw-199" value="&lt;span style=&quot;border-color: var(--border-color);&quot;&gt;Z&lt;sub style=&quot;border-color: var(--border-color);&quot;&gt;оч1&lt;/sub&gt;&lt;/span&gt;&lt;span style=&quot;border-color: var(--border-color);&quot;&gt;&amp;gt;6&lt;/span&gt;" style="rhombus;whiteSpace=wrap;html=1;fontFamily=Times New Roman;" vertex="1" parent="1">
          <mxGeometry x="166" y="1630" width="210" height="80" as="geometry" />
        </mxCell>
        <mxCell id="hfiU2eHEGM3FgHxI7Riw-200" value="Да, клерк обслуживает &lt;br&gt;новых клиентов в &lt;br&gt;максимально &lt;br&gt;возможном количестве&amp;nbsp; &amp;nbsp;" style="text;html=1;align=left;verticalAlign=middle;resizable=0;points=[];autosize=1;strokeColor=none;fillColor=none;fontFamily=Times New Roman;" vertex="1" parent="1">
          <mxGeometry x="141" y="1710" width="150" height="70" as="geometry" />
        </mxCell>
      </root>
    </mxGraphModel>
  </diagram>
</mxfile>
